<svg xmlns="http://www.w3.org/2000/svg" xmlns:xlink="http://www.w3.org/1999/xlink" width="482" zoomAndPan="magnify" viewBox="0 0 361.5 361.500003" height="482" preserveAspectRatio="xMidYMid meet" version="1.0"><defs><g/><clipPath id="e98e1208f2"><path d="M 37.898438 37.898438 L 323.648438 37.898438 L 323.648438 323.648438 L 37.898438 323.648438 Z M 37.898438 37.898438 " clip-rule="nonzero"/></clipPath><clipPath id="a479faf424"><path d="M 92.21875 94.808594 L 263.953125 94.808594 L 263.953125 266.542969 L 92.21875 266.542969 Z M 92.21875 94.808594 " clip-rule="nonzero"/></clipPath><clipPath id="a4cef8f183"><path d="M 92.21875 94.808594 L 263.953125 94.808594 L 263.953125 266.542969 L 92.21875 266.542969 Z M 92.21875 94.808594 " clip-rule="nonzero"/></clipPath><clipPath id="e6ba16ff00"><path d="M 262 125 L 289 125 L 289 151 L 262 151 Z M 262 125 " clip-rule="nonzero"/></clipPath><clipPath id="cd0af04656"><path d="M 250.613281 137.730469 L 276.039062 113.316406 L 300.453125 138.738281 L 275.03125 163.15625 Z M 250.613281 137.730469 " clip-rule="nonzero"/></clipPath><clipPath id="b1be38abf9"><path d="M 250.613281 137.730469 L 276.039062 113.316406 L 300.453125 138.738281 L 275.03125 163.15625 Z M 250.613281 137.730469 " clip-rule="nonzero"/></clipPath><clipPath id="7cf8c347bb"><path d="M 73 125 L 100 125 L 100 151 L 73 151 Z M 73 125 " clip-rule="nonzero"/></clipPath><clipPath id="d13b7be617"><path d="M 61.441406 137.730469 L 86.867188 113.316406 L 111.285156 138.738281 L 85.859375 163.15625 Z M 61.441406 137.730469 " clip-rule="nonzero"/></clipPath><clipPath id="4c89a2476c"><path d="M 61.441406 137.730469 L 86.867188 113.316406 L 111.285156 138.738281 L 85.859375 163.15625 Z M 61.441406 137.730469 " clip-rule="nonzero"/></clipPath><clipPath id="197e806fd7"><path d="M 75 157 L 92 157 L 92 174 L 75 174 Z M 75 157 " clip-rule="nonzero"/></clipPath><clipPath id="c1647bbec6"><path d="M 67.789062 164.964844 L 83.476562 149.902344 L 98.542969 165.589844 L 82.855469 180.652344 Z M 67.789062 164.964844 " clip-rule="nonzero"/></clipPath><clipPath id="8c79079a52"><path d="M 67.789062 164.964844 L 83.476562 149.902344 L 98.542969 165.589844 L 82.855469 180.652344 Z M 67.789062 164.964844 " clip-rule="nonzero"/></clipPath><clipPath id="ccbe636b77"><path d="M 267 155 L 284 155 L 284 171 L 267 171 Z M 267 155 " clip-rule="nonzero"/></clipPath><clipPath id="6b99641eed"><path d="M 259.871094 162.636719 L 275.558594 147.570312 L 290.625 163.257812 L 274.9375 178.324219 Z M 259.871094 162.636719 " clip-rule="nonzero"/></clipPath><clipPath id="6e383641f2"><path d="M 259.871094 162.636719 L 275.558594 147.570312 L 290.625 163.257812 L 274.9375 178.324219 Z M 259.871094 162.636719 " clip-rule="nonzero"/></clipPath></defs><g clip-path="url(#e98e1208f2)"><path fill="#e8bf55" d="M 180.773438 37.898438 C 101.964844 37.898438 37.898438 102.023438 37.898438 180.773438 C 37.898438 259.585938 101.964844 323.648438 180.773438 323.648438 C 259.527344 323.648438 323.648438 259.585938 323.648438 180.773438 C 323.648438 102.023438 259.527344 37.898438 180.773438 37.898438 Z M 180.773438 312.503906 C 108.136719 312.503906 49.042969 253.410156 49.042969 180.773438 C 49.042969 108.136719 108.136719 49.042969 180.773438 49.042969 C 253.410156 49.042969 312.503906 108.136719 312.503906 180.773438 C 312.503906 253.410156 253.410156 312.503906 180.773438 312.503906 Z M 180.773438 312.503906 " fill-opacity="1" fill-rule="nonzero"/></g><path fill="#e8bf55" d="M 180.773438 56.472656 C 112.25 56.472656 56.472656 112.25 56.472656 180.773438 C 56.472656 249.296875 112.25 305.074219 180.773438 305.074219 C 249.296875 305.074219 305.074219 249.296875 305.074219 180.773438 C 305.074219 112.25 249.296875 56.472656 180.773438 56.472656 Z M 180.773438 56.472656 " fill-opacity="1" fill-rule="nonzero"/><g fill="#9f0520" fill-opacity="1"><g transform="translate(118.861089, 107.59618)"><g><path d="M -0.03125 -11.921875 L 5.703125 -4.296875 L 1.5 -1.125 L -13.125 -20.5625 L -4.34375 -27.171875 L -1.609375 -23.546875 L -6.1875 -20.109375 L -2.6875 -15.453125 L 1.578125 -18.65625 L 4.234375 -15.125 Z M -0.03125 -11.921875 "/></g></g></g><g fill="#9f0520" fill-opacity="1"><g transform="translate(132.576358, 97.778509)"><g><path d="M -5.1875 -24.828125 L 6.296875 -3.375 L 1.65625 -0.890625 L -9.828125 -22.34375 Z M -5.1875 -24.828125 "/></g></g></g><g fill="#9f0520" fill-opacity="1"><g transform="translate(143.113758, 92.126116)"><g><path d="M 6.328125 -24.328125 L 5.03125 -5.875 L 11.90625 -8.265625 L 13.1875 -4.578125 L 1.140625 -0.390625 L 0.078125 -3.453125 L 1.34375 -22.0625 L -5.34375 -19.734375 L -6.640625 -23.453125 L 5.203125 -27.5625 Z M 6.328125 -24.328125 "/></g></g></g><g fill="#9f0520" fill-opacity="1"><g transform="translate(159.609948, 86.634213)"><g><path d="M 10.671875 -22.75 L 6.03125 -4.859375 L 13.21875 -5.9375 L 13.796875 -2.078125 L 1.1875 -0.1875 L 0.703125 -3.390625 L 5.359375 -21.421875 L -1.640625 -20.375 L -2.234375 -24.265625 L 10.15625 -26.125 Z M 10.671875 -22.75 "/></g></g></g><g fill="#9f0520" fill-opacity="1"><g transform="translate(176.669294, 84.136927)"><g><path d="M 14.390625 -12.625 C 15.992188 -11.976562 16.742188 -10.613281 16.640625 -8.53125 L 16.421875 -4.1875 C 16.265625 -0.875 14.632812 0.707031 11.53125 0.5625 L 1.875 0.09375 L 3.0625 -24.203125 L 12.421875 -23.75 C 15.523438 -23.601562 16.992188 -21.882812 16.828125 -18.59375 L 16.71875 -16.375 C 16.625 -14.363281 15.847656 -13.113281 14.390625 -12.625 Z M 10.921875 -20.25 L 8.140625 -20.390625 L 7.8125 -13.890625 L 10.59375 -13.75 C 10.800781 -13.738281 10.976562 -13.804688 11.125 -13.953125 C 11.269531 -14.097656 11.347656 -14.269531 11.359375 -14.46875 L 11.59375 -19.46875 C 11.601562 -19.664062 11.546875 -19.84375 11.421875 -20 C 11.296875 -20.15625 11.128906 -20.238281 10.921875 -20.25 Z M 11.140625 -3.828125 L 11.40625 -9.265625 C 11.40625 -9.460938 11.34375 -9.640625 11.21875 -9.796875 C 11.09375 -9.953125 10.929688 -10.035156 10.734375 -10.046875 L 7.640625 -10.203125 L 7.296875 -3.265625 L 10.390625 -3.109375 C 10.585938 -3.097656 10.757812 -3.164062 10.90625 -3.3125 C 11.050781 -3.457031 11.128906 -3.628906 11.140625 -3.828125 Z M 11.140625 -3.828125 "/></g></g></g><g fill="#9f0520" fill-opacity="1"><g transform="translate(196.728973, 85.360621)"><g><path d="M 16.453125 -20.796875 L 21.546875 -19.453125 L 16.46875 -0.375 C 15.625 2.820312 13.703125 4.023438 10.703125 3.234375 L 6.1875 2.03125 C 3.1875 1.226562 2.109375 -0.769531 2.953125 -3.96875 L 8.03125 -23.046875 L 13.125 -21.6875 L 7.9375 -2.171875 C 7.882812 -1.984375 7.90625 -1.800781 8 -1.625 C 8.09375 -1.445312 8.238281 -1.328125 8.4375 -1.265625 L 10.40625 -0.75 C 10.59375 -0.695312 10.769531 -0.722656 10.9375 -0.828125 C 11.101562 -0.941406 11.210938 -1.09375 11.265625 -1.28125 Z M 16.453125 -20.796875 "/></g></g></g><g fill="#9f0520" fill-opacity="1"><g transform="translate(215.837019, 90.806176)"><g><path d="M 21.75 -12.609375 L 7.71875 -0.546875 L 14.25 2.65625 L 12.53125 6.15625 L 1.078125 0.53125 L 2.5 -2.375 L 16.609375 -14.546875 L 10.265625 -17.671875 L 12 -21.21875 L 23.25 -15.6875 Z M 21.75 -12.609375 "/></g></g></g><g fill="#9f0520" fill-opacity="1"><g transform="translate(231.34205, 98.672526)"><g><path d="M 23.6875 -8.421875 L 7.6875 0.875 L 13.515625 5.21875 L 11.1875 8.34375 L 0.96875 0.71875 L 2.90625 -1.875 L 19 -11.265625 L 13.328125 -15.5 L 15.6875 -18.65625 L 25.734375 -11.15625 Z M 23.6875 -8.421875 "/></g></g></g><g clip-path="url(#a479faf424)"><path fill="#273464" d="M 262.3125 197.429688 L 256.503906 204.460938 L 257.417969 213.535156 L 250.339844 219.289062 L 249.460938 228.367188 L 241.398438 232.632812 L 238.773438 241.367188 L 230.039062 243.992188 L 225.773438 252.054688 L 216.695312 252.933594 L 210.945312 260.011719 L 201.867188 259.09375 L 194.835938 264.90625 L 186.117188 262.222656 L 178.085938 266.542969 L 170.054688 262.222656 L 161.335938 264.90625 L 154.304688 259.09375 L 145.230469 260.011719 L 139.476562 252.933594 L 130.394531 252.054688 L 126.132812 243.988281 L 117.398438 241.367188 L 114.773438 232.632812 L 106.710938 228.367188 L 105.832031 219.289062 L 98.753906 213.535156 L 99.667969 204.460938 L 93.859375 197.429688 L 96.542969 188.710938 L 92.21875 180.675781 L 96.542969 172.644531 L 93.859375 163.925781 L 99.667969 156.894531 L 98.753906 147.820312 L 105.832031 142.066406 L 106.710938 132.988281 L 114.773438 128.722656 L 117.398438 119.988281 L 126.132812 117.363281 L 130.398438 109.300781 L 139.476562 108.421875 L 145.230469 101.347656 L 154.304688 102.261719 L 161.335938 96.453125 L 170.054688 99.132812 L 178.085938 94.8125 L 186.117188 99.132812 L 194.835938 96.453125 L 201.867188 102.261719 L 210.945312 101.347656 L 216.695312 108.421875 L 225.777344 109.304688 L 230.039062 117.363281 L 238.773438 119.988281 L 241.398438 128.726562 L 249.460938 132.988281 L 250.339844 142.066406 L 257.417969 147.820312 L 256.503906 156.894531 L 262.3125 163.925781 L 259.632812 172.644531 L 263.953125 180.675781 L 259.632812 188.710938 L 262.3125 197.429688 " fill-opacity="1" fill-rule="nonzero"/></g><path fill="#e8bf55" d="M 255.402344 180.675781 C 255.402344 223.378906 220.785156 257.992188 178.085938 257.992188 C 135.386719 257.992188 100.773438 223.378906 100.773438 180.675781 C 100.773438 137.980469 135.386719 103.363281 178.085938 103.363281 C 220.785156 103.363281 255.402344 137.980469 255.402344 180.675781 " fill-opacity="1" fill-rule="nonzero"/><g clip-path="url(#a4cef8f183)"><path fill="#273464" d="M 195.621094 215.140625 C 193.773438 213.605469 188.15625 212.050781 185.71875 215.140625 C 189.078125 208.640625 193.4375 204.085938 197.648438 204.648438 C 200.222656 205.417969 199.316406 211.558594 195.621094 215.140625 Z M 170.214844 201.355469 C 167.460938 206.015625 158.863281 208.71875 154.214844 207.769531 L 154.164062 207.773438 L 154.574219 206.148438 C 160.371094 205.632812 163.203125 203.03125 165.011719 199.824219 C 166.777344 196.722656 166.648438 192.964844 164.578125 190.363281 C 162.507812 187.757812 158.542969 186.199219 152.582031 187.398438 C 147.1875 188.558594 141.65625 194.9375 140.578125 200.007812 C 140.054688 202.363281 140.574219 204.082031 142.550781 204.371094 C 142.179688 205.148438 141.742188 205.773438 141.257812 206.261719 C 141.171875 206.992188 140.558594 207.554688 139.804688 207.554688 C 139.617188 207.554688 139.441406 207.519531 139.277344 207.453125 C 137.226562 207.980469 135.039062 206.648438 134.058594 203.820312 C 133.363281 201.746094 133.605469 199.050781 135.421875 195.894531 C 139.515625 188.726562 148.902344 183.808594 157.367188 184.777344 C 163.023438 185.300781 167.144531 187.726562 169.464844 190.988281 C 171.78125 194.246094 172.121094 198.042969 170.214844 201.355469 Z M 146.960938 221.320312 C 144.101562 226.761719 137.117188 228.847656 134.910156 222.433594 C 139.300781 221.695312 142.152344 216.980469 144.582031 211.257812 C 148.320312 202.570312 151.085938 191.515625 156.9375 188.570312 C 158.1875 187.976562 159.625 187.835938 161.296875 188.195312 C 157.765625 189.496094 155.867188 192.96875 154.402344 197.546875 C 152.769531 202.808594 152.066406 207.234375 150.617188 212.121094 C 149.8125 214.957031 148.65625 217.914062 146.960938 221.320312 Z M 133.285156 216.8125 C 131.421875 216.8125 129.917969 215.304688 129.917969 213.445312 C 129.917969 211.585938 131.421875 210.082031 133.285156 210.082031 C 135.140625 210.082031 136.648438 211.585938 136.648438 213.445312 C 136.648438 215.304688 135.140625 216.8125 133.285156 216.8125 Z M 139.382812 187.359375 C 140.082031 187.359375 140.648438 187.925781 140.648438 188.621094 C 140.648438 189.320312 140.082031 189.882812 139.382812 189.882812 C 138.6875 189.882812 138.121094 189.320312 138.121094 188.621094 C 138.121094 187.925781 138.6875 187.359375 139.382812 187.359375 Z M 212.570312 226.710938 C 211.183594 225.785156 210.355469 224.398438 210.179688 222.695312 C 209.964844 220.652344 210.359375 218.773438 210.671875 217.539062 C 210.898438 216.640625 211.15625 215.671875 211.472656 214.703125 C 211.941406 213.285156 212.136719 211.746094 212.082031 209.859375 C 212.023438 207.664062 211.664062 205.492188 211.289062 203.195312 L 211.257812 203.003906 C 211.140625 202.296875 211.023438 201.59375 210.90625 200.890625 C 210.648438 199.355469 210.382812 197.769531 210.144531 196.195312 C 210.027344 195.425781 210.070312 194.613281 210.269531 193.847656 C 210.402344 193.347656 210.421875 192.878906 210.339844 192.375 C 210.101562 190.875 210.046875 189.28125 210.179688 187.421875 C 200.9375 187.023438 189.914062 185.84375 176.828125 182.335938 C 149.371094 174.972656 122.808594 182.207031 116.191406 189.226562 C 117.054688 211.878906 137.21875 240.507812 167.476562 244.792969 C 170.390625 238.046875 175.382812 226.523438 179.3125 217.355469 C 178.578125 217.476562 177.855469 217.402344 177.230469 217.113281 C 171.222656 227.441406 160.675781 227.894531 161.390625 217.84375 C 161.789062 210.183594 168.707031 202.019531 176.015625 202.59375 C 181.09375 203 181.285156 210.207031 178.347656 215.1875 C 178.667969 215.636719 179.515625 215.484375 180.378906 214.867188 C 182.125 210.78125 183.574219 207.363281 184.390625 205.375 C 185.011719 203.785156 185.6875 202.199219 185.3125 201.964844 L 191.734375 201.5625 L 189.953125 205.285156 C 192.523438 202.699219 195.921875 200.941406 198.363281 201.203125 C 204.695312 201.835938 203.171875 211.320312 199.820312 216.273438 C 202.664062 216.40625 204.039062 214.464844 205.585938 211.167969 L 206.488281 213.226562 C 203.980469 217.664062 201.789062 218.933594 198.757812 219.125 C 194.234375 225.132812 183.488281 224.871094 184.101562 218.128906 C 181.75 222.683594 176.625 239.066406 174.785156 245.339844 C 175.167969 245.339844 175.550781 245.34375 175.933594 245.339844 C 196.171875 245.902344 210.789062 238.640625 220.902344 228.957031 C 218.972656 228.828125 217.285156 228.554688 215.652344 228.101562 C 214.523438 227.789062 213.488281 227.320312 212.570312 226.710938 Z M 176.484375 205.144531 C 177.628906 206.980469 176.179688 211.042969 174.226562 213.640625 C 171.078125 211.929688 173.703125 206.039062 176.484375 205.144531 Z M 172.550781 215.703125 C 170.976562 218.535156 164.59375 220.429688 165.308594 215.332031 C 165.582031 213.09375 166.855469 210.335938 168.625 208.160156 C 170.347656 205.992188 172.523438 204.464844 174.746094 204.582031 C 170.316406 207.128906 168.203125 212.933594 172.550781 215.703125 Z M 233.691406 211.109375 C 233.660156 209.722656 233.753906 208.277344 233.976562 206.816406 C 234.238281 205.074219 234.53125 203.292969 234.8125 201.574219 C 234.96875 200.625 235.121094 199.675781 235.273438 198.722656 C 235.445312 197.660156 235.585938 196.253906 235.171875 194.765625 C 235.210938 194.417969 235.257812 194.066406 235.308594 193.699219 C 235.378906 193.148438 235.457031 192.582031 235.507812 191.996094 C 235.628906 190.644531 235.667969 189.351562 235.636719 188.097656 C 237.191406 188.289062 238.628906 188.5625 239.953125 188.957031 C 240.195312 193.964844 238.335938 202.59375 233.722656 211.617188 C 233.707031 211.449219 233.695312 211.277344 233.691406 211.109375 Z M 194.097656 217.144531 C 192.003906 219.957031 186.863281 219.402344 187.0625 217.636719 C 187.300781 214.886719 191.714844 215.335938 194.097656 217.144531 Z M 178.085938 257.992188 C 135.386719 257.992188 100.773438 223.378906 100.773438 180.675781 C 100.773438 137.980469 135.386719 103.363281 178.085938 103.363281 C 220.785156 103.363281 255.402344 137.980469 255.402344 180.675781 C 255.402344 223.378906 220.785156 257.992188 178.085938 257.992188 Z M 259.632812 188.710938 L 263.953125 180.675781 L 259.632812 172.644531 L 262.3125 163.925781 L 256.503906 156.894531 L 257.417969 147.820312 L 250.339844 142.066406 L 249.460938 132.988281 L 241.398438 128.726562 L 238.773438 119.988281 L 230.039062 117.363281 L 225.777344 109.304688 L 216.695312 108.421875 L 210.945312 101.347656 L 201.867188 102.261719 L 194.835938 96.453125 L 186.117188 99.132812 L 178.085938 94.8125 L 170.054688 99.132812 L 161.335938 96.453125 L 154.304688 102.261719 L 145.230469 101.347656 L 139.476562 108.421875 L 130.398438 109.300781 L 126.132812 117.363281 L 117.398438 119.988281 L 114.773438 128.722656 L 106.710938 132.988281 L 105.832031 142.066406 L 98.753906 147.820312 L 99.667969 156.894531 L 93.859375 163.925781 L 96.542969 172.644531 L 92.21875 180.675781 L 96.542969 188.710938 L 93.859375 197.429688 L 99.667969 204.460938 L 98.753906 213.535156 L 105.832031 219.289062 L 106.710938 228.367188 L 114.773438 232.632812 L 117.398438 241.367188 L 126.132812 243.988281 L 130.394531 252.054688 L 139.476562 252.933594 L 145.230469 260.011719 L 154.304688 259.09375 L 161.335938 264.90625 L 170.054688 262.222656 L 178.085938 266.542969 L 186.117188 262.222656 L 194.835938 264.90625 L 201.867188 259.09375 L 210.945312 260.011719 L 216.695312 252.933594 L 225.773438 252.054688 L 230.039062 243.992188 L 238.773438 241.367188 L 241.398438 232.632812 L 249.460938 228.367188 L 250.339844 219.289062 L 257.417969 213.535156 L 256.503906 204.460938 L 262.3125 197.429688 L 259.632812 188.710938 " fill-opacity="1" fill-rule="nonzero"/></g><path fill="#9f0520" d="M 135.046875 141.191406 C 137.625 137.910156 142.652344 136.125 143.523438 139.699219 C 143.546875 139.800781 143.570312 139.90625 143.585938 140.011719 C 143.945312 142.511719 141.292969 144.390625 138.96875 143.402344 C 137.636719 142.835938 136.191406 142.09375 135.046875 141.191406 Z M 218.214844 181.914062 C 218.214844 181.910156 218.214844 181.910156 218.214844 181.910156 C 218.21875 181.878906 218.226562 181.851562 218.238281 181.832031 C 218.246094 181.824219 218.25 181.816406 218.257812 181.8125 C 218.265625 181.796875 218.277344 181.785156 218.289062 181.773438 C 218.296875 181.769531 218.308594 181.765625 218.316406 181.761719 C 218.332031 181.753906 218.34375 181.746094 218.359375 181.746094 C 218.367188 181.742188 218.382812 181.742188 218.394531 181.738281 C 218.40625 181.738281 218.414062 181.734375 218.425781 181.734375 C 218.433594 181.734375 218.445312 181.738281 218.457031 181.738281 C 218.769531 181.761719 219.082031 181.785156 219.394531 181.808594 C 219.746094 181.835938 220.097656 181.863281 220.445312 181.890625 C 220.484375 181.894531 220.519531 181.902344 220.546875 181.914062 C 220.621094 181.949219 220.65625 182.015625 220.660156 182.105469 C 220.660156 182.121094 220.664062 182.132812 220.660156 182.148438 C 220.628906 182.441406 220.59375 182.734375 220.558594 183.027344 C 220.542969 183.160156 220.53125 183.289062 220.515625 183.421875 C 220.511719 183.425781 220.507812 183.433594 220.507812 183.441406 C 220.503906 183.464844 220.496094 183.492188 220.488281 183.511719 C 220.484375 183.515625 220.480469 183.519531 220.480469 183.523438 C 220.464844 183.542969 220.449219 183.5625 220.433594 183.574219 C 220.429688 183.578125 220.421875 183.578125 220.414062 183.582031 C 220.398438 183.59375 220.378906 183.605469 220.355469 183.609375 C 220.34375 183.613281 220.328125 183.613281 220.3125 183.613281 C 220.296875 183.617188 220.28125 183.621094 220.265625 183.621094 C 220.261719 183.621094 220.261719 183.621094 220.261719 183.621094 C 220.195312 183.621094 220.128906 183.621094 220.058594 183.621094 C 220.039062 183.621094 220.015625 183.621094 219.992188 183.621094 C 219.8125 183.621094 219.632812 183.621094 219.453125 183.621094 C 219.453125 183.621094 219.453125 183.625 219.453125 183.625 C 219.453125 183.628906 219.453125 183.636719 219.453125 183.640625 C 219.117188 183.617188 218.78125 183.613281 218.449219 183.566406 C 218.304688 183.550781 218.207031 183.511719 218.144531 183.441406 C 218.113281 183.40625 218.09375 183.363281 218.078125 183.3125 C 218.066406 183.261719 218.0625 183.203125 218.066406 183.132812 C 218.089844 182.726562 218.160156 182.320312 218.214844 181.914062 Z M 222.679688 157.179688 C 222.6875 157.289062 222.683594 157.398438 222.675781 157.503906 C 222.660156 157.667969 222.628906 157.828125 222.578125 157.988281 C 222.578125 157.992188 222.574219 157.996094 222.574219 158 C 222.546875 158.082031 222.511719 158.164062 222.476562 158.246094 C 222.382812 158.441406 222.246094 158.5625 222.058594 158.617188 C 222 158.632812 221.929688 158.644531 221.859375 158.648438 C 221.859375 158.648438 221.855469 158.648438 221.855469 158.648438 C 221.804688 158.652344 221.757812 158.652344 221.710938 158.652344 C 221.691406 158.652344 221.679688 158.652344 221.664062 158.652344 C 221.632812 158.648438 221.601562 158.648438 221.570312 158.644531 C 221.53125 158.644531 221.496094 158.636719 221.460938 158.632812 C 221.433594 158.628906 221.40625 158.625 221.382812 158.617188 C 221.351562 158.609375 221.320312 158.601562 221.292969 158.589844 C 221.269531 158.582031 221.246094 158.574219 221.230469 158.5625 C 221.203125 158.546875 221.179688 158.53125 221.15625 158.515625 C 221.140625 158.503906 221.121094 158.492188 221.105469 158.476562 C 221.085938 158.457031 221.066406 158.433594 221.050781 158.410156 C 221.039062 158.394531 221.023438 158.378906 221.011719 158.359375 C 220.996094 158.332031 220.984375 158.300781 220.96875 158.269531 C 220.960938 158.246094 220.953125 158.230469 220.945312 158.207031 C 220.933594 158.167969 220.925781 158.125 220.914062 158.082031 C 220.910156 158.058594 220.902344 158.039062 220.898438 158.015625 C 220.886719 157.949219 220.882812 157.878906 220.875 157.800781 C 220.875 157.796875 220.875 157.789062 220.875 157.785156 C 220.871094 157.726562 220.871094 157.667969 220.875 157.605469 C 220.875 157.578125 220.875 157.546875 220.875 157.519531 C 220.875 157.433594 220.875 157.355469 220.875 157.289062 C 220.878906 157.265625 220.878906 157.246094 220.882812 157.226562 C 220.886719 157.183594 220.886719 157.140625 220.894531 157.101562 C 220.898438 157.082031 220.902344 157.0625 220.90625 157.042969 C 220.914062 157.015625 220.921875 156.984375 220.933594 156.957031 C 220.9375 156.941406 220.945312 156.929688 220.953125 156.914062 C 220.964844 156.890625 220.976562 156.871094 220.992188 156.855469 C 221.003906 156.84375 221.015625 156.832031 221.023438 156.820312 C 221.042969 156.808594 221.066406 156.792969 221.089844 156.78125 C 221.101562 156.777344 221.113281 156.769531 221.128906 156.761719 C 221.160156 156.753906 221.195312 156.746094 221.230469 156.738281 C 221.242188 156.738281 221.253906 156.734375 221.269531 156.730469 C 221.320312 156.726562 221.378906 156.722656 221.449219 156.722656 C 221.449219 156.722656 221.453125 156.722656 221.453125 156.722656 C 221.496094 156.722656 221.546875 156.726562 221.59375 156.726562 C 221.628906 156.726562 221.664062 156.726562 221.703125 156.730469 C 221.777344 156.734375 221.851562 156.75 221.921875 156.757812 C 222.085938 156.78125 222.246094 156.8125 222.410156 156.84375 C 222.511719 156.863281 222.582031 156.917969 222.625 156.992188 C 222.65625 157.042969 222.675781 157.105469 222.679688 157.179688 Z M 220.722656 167.164062 C 220.753906 166.859375 220.78125 166.554688 220.808594 166.25 C 220.828125 166.050781 220.839844 165.855469 220.855469 165.65625 C 220.96875 164.328125 221.050781 162.992188 221.15625 161.660156 C 221.167969 161.464844 221.183594 161.273438 221.1875 161.078125 C 221.1875 161.042969 221.191406 161.015625 221.199219 160.996094 C 221.199219 160.988281 221.203125 160.980469 221.203125 160.976562 C 221.210938 160.960938 221.21875 160.945312 221.226562 160.9375 C 221.234375 160.929688 221.242188 160.925781 221.246094 160.921875 C 221.257812 160.914062 221.265625 160.90625 221.28125 160.902344 C 221.289062 160.898438 221.304688 160.898438 221.316406 160.894531 C 221.332031 160.894531 221.339844 160.890625 221.355469 160.890625 C 221.363281 160.890625 221.367188 160.890625 221.371094 160.890625 C 221.617188 160.898438 221.867188 160.898438 222.113281 160.890625 C 222.117188 160.890625 222.121094 160.890625 222.125 160.890625 C 222.140625 160.890625 222.152344 160.894531 222.164062 160.894531 C 222.175781 160.898438 222.191406 160.898438 222.203125 160.902344 C 222.214844 160.90625 222.222656 160.914062 222.230469 160.921875 C 222.238281 160.925781 222.246094 160.929688 222.253906 160.9375 C 222.261719 160.945312 222.265625 160.960938 222.269531 160.972656 C 222.269531 160.980469 222.273438 160.988281 222.273438 160.996094 C 222.28125 161.015625 222.28125 161.042969 222.277344 161.074219 C 222.277344 161.078125 222.277344 161.078125 222.277344 161.082031 C 222.183594 162.425781 222.09375 163.765625 222 165.113281 C 221.90625 166.488281 221.8125 167.863281 221.71875 169.238281 C 221.699219 169.511719 221.679688 169.785156 221.660156 170.0625 C 221.59375 171.050781 221.523438 172.035156 221.453125 173.023438 C 221.371094 174.1875 221.285156 175.347656 221.191406 176.511719 C 221.097656 177.679688 220.96875 178.851562 220.839844 180.019531 C 220.828125 180.128906 220.808594 180.214844 220.785156 180.285156 C 220.765625 180.339844 220.742188 180.382812 220.710938 180.417969 C 220.652344 180.484375 220.566406 180.523438 220.441406 180.546875 C 220.378906 180.558594 220.3125 180.566406 220.226562 180.574219 C 220.160156 180.574219 220.089844 180.578125 220.019531 180.578125 C 220 180.578125 219.976562 180.578125 219.957031 180.578125 C 219.867188 180.574219 219.777344 180.574219 219.6875 180.574219 C 219.683594 180.574219 219.675781 180.574219 219.667969 180.574219 C 219.667969 180.574219 219.667969 180.578125 219.667969 180.582031 C 219.667969 180.582031 219.667969 180.589844 219.667969 180.589844 C 219.539062 180.582031 219.410156 180.574219 219.28125 180.566406 C 219.148438 180.5625 219.015625 180.554688 218.882812 180.542969 C 218.710938 180.527344 218.617188 180.511719 218.574219 180.453125 C 218.539062 180.414062 218.535156 180.351562 218.546875 180.253906 C 218.550781 180.222656 218.554688 180.183594 218.5625 180.136719 C 218.6875 179.433594 218.820312 178.730469 218.949219 178.027344 C 219 177.746094 219.050781 177.460938 219.105469 177.179688 C 219.136719 177.007812 219.167969 176.839844 219.199219 176.667969 C 219.324219 176.007812 219.445312 175.347656 219.566406 174.683594 C 219.644531 174.269531 219.71875 173.851562 219.792969 173.4375 C 220.015625 172.195312 220.21875 170.949219 220.398438 169.703125 C 220.519531 168.859375 220.628906 168.011719 220.722656 167.164062 Z M 219.964844 224.277344 C 219.953125 224.316406 219.933594 224.359375 219.898438 224.40625 C 219.695312 224.664062 219.441406 224.824219 219.011719 224.867188 C 218.953125 224.871094 218.890625 224.875 218.828125 224.875 C 218.828125 224.875 218.828125 224.875 218.824219 224.875 C 218.804688 224.875 218.785156 224.867188 218.765625 224.867188 C 218.75 224.863281 218.730469 224.863281 218.710938 224.859375 C 218.6875 224.851562 218.664062 224.84375 218.644531 224.832031 C 218.625 224.828125 218.609375 224.824219 218.589844 224.8125 C 218.566406 224.800781 218.546875 224.789062 218.523438 224.773438 C 218.503906 224.761719 218.488281 224.753906 218.46875 224.742188 C 218.449219 224.726562 218.429688 224.707031 218.410156 224.691406 C 218.394531 224.675781 218.375 224.664062 218.355469 224.644531 C 218.339844 224.628906 218.324219 224.609375 218.308594 224.589844 C 218.289062 224.570312 218.273438 224.550781 218.253906 224.527344 C 218.242188 224.511719 218.234375 224.488281 218.21875 224.472656 C 218.203125 224.445312 218.1875 224.421875 218.171875 224.394531 C 218.164062 224.375 218.15625 224.351562 218.148438 224.332031 C 218.136719 224.304688 218.125 224.277344 218.113281 224.246094 C 218.109375 224.226562 218.105469 224.203125 218.101562 224.183594 C 218.09375 224.148438 218.085938 224.121094 218.082031 224.085938 C 218.082031 224.085938 218.082031 224.082031 218.082031 224.082031 C 218.078125 224.027344 218.082031 223.976562 218.089844 223.933594 C 218.09375 223.917969 218.101562 223.910156 218.105469 223.894531 C 218.113281 223.867188 218.125 223.84375 218.136719 223.824219 C 218.148438 223.8125 218.160156 223.804688 218.171875 223.796875 C 218.1875 223.78125 218.207031 223.769531 218.230469 223.761719 C 218.246094 223.757812 218.261719 223.753906 218.28125 223.753906 C 218.292969 223.753906 218.300781 223.746094 218.316406 223.746094 C 218.34375 223.746094 218.371094 223.75 218.402344 223.753906 C 218.484375 223.769531 218.570312 223.789062 218.648438 223.804688 C 219.035156 223.882812 219.417969 223.96875 219.796875 224.070312 C 219.941406 224.109375 219.992188 224.179688 219.964844 224.277344 Z M 219.957031 219.71875 C 219.914062 219.773438 219.867188 219.816406 219.820312 219.855469 C 219.804688 219.867188 219.792969 219.882812 219.777344 219.890625 C 219.714844 219.9375 219.644531 219.972656 219.574219 219.996094 C 219.558594 220 219.546875 220.003906 219.53125 220.007812 C 219.46875 220.023438 219.40625 220.03125 219.34375 220.035156 C 219.332031 220.035156 219.320312 220.039062 219.308594 220.039062 C 219.296875 220.039062 219.285156 220.039062 219.273438 220.035156 C 219.21875 220.035156 219.167969 220.027344 219.113281 220.019531 C 219.089844 220.011719 219.066406 220.011719 219.042969 220.003906 C 218.964844 219.984375 218.882812 219.957031 218.796875 219.917969 C 218.667969 219.863281 218.578125 219.777344 218.507812 219.679688 C 218.414062 219.546875 218.363281 219.386719 218.371094 219.210938 C 218.375 219.105469 218.382812 218.996094 218.390625 218.890625 C 218.410156 218.566406 218.453125 218.242188 218.53125 217.929688 C 218.734375 217.144531 218.976562 216.375 219.1875 215.59375 C 219.242188 215.398438 219.292969 215.203125 219.339844 215.011719 C 219.378906 214.84375 219.414062 214.679688 219.441406 214.511719 C 219.527344 214.011719 219.570312 213.511719 219.582031 213.007812 C 219.585938 212.839844 219.585938 212.671875 219.585938 212.503906 C 219.582031 212 219.550781 211.492188 219.519531 210.988281 C 219.457031 210 219.390625 209.015625 219.324219 208.027344 C 219.261719 207.164062 219.199219 206.296875 219.128906 205.433594 C 218.960938 203.429688 218.753906 201.425781 218.5625 199.421875 C 218.46875 198.410156 218.363281 197.394531 218.265625 196.382812 C 218.265625 196.382812 218.265625 196.382812 218.265625 196.378906 C 218.257812 196.328125 218.261719 196.285156 218.269531 196.246094 C 218.273438 196.234375 218.277344 196.222656 218.28125 196.214844 C 218.289062 196.191406 218.296875 196.167969 218.3125 196.152344 C 218.320312 196.144531 218.332031 196.140625 218.339844 196.132812 C 218.355469 196.121094 218.375 196.113281 218.398438 196.105469 C 218.414062 196.105469 218.425781 196.101562 218.445312 196.101562 C 218.453125 196.097656 218.460938 196.097656 218.46875 196.097656 C 218.5 196.097656 218.53125 196.097656 218.570312 196.105469 C 218.59375 196.105469 218.617188 196.113281 218.644531 196.113281 C 219.019531 196.167969 219.394531 196.226562 219.769531 196.277344 C 219.875 196.292969 219.949219 196.316406 220.003906 196.347656 C 220.019531 196.355469 220.039062 196.363281 220.050781 196.375 C 220.0625 196.386719 220.066406 196.40625 220.078125 196.421875 C 220.097656 196.457031 220.117188 196.507812 220.128906 196.570312 C 220.132812 196.597656 220.136719 196.621094 220.140625 196.65625 C 220.242188 197.851562 220.335938 199.042969 220.429688 200.238281 C 220.484375 200.941406 220.539062 201.644531 220.59375 202.347656 C 220.722656 203.988281 220.84375 205.628906 220.960938 207.269531 C 221.046875 208.507812 221.097656 209.75 221.160156 210.988281 C 221.160156 211.019531 221.160156 211.046875 221.164062 211.078125 C 221.175781 211.285156 221.1875 211.496094 221.199219 211.703125 C 221.265625 213.027344 221.277344 214.351562 221.109375 215.671875 C 220.96875 216.796875 220.722656 217.898438 220.339844 218.96875 C 220.285156 219.121094 220.21875 219.273438 220.148438 219.421875 C 220.148438 219.421875 220.148438 219.421875 220.148438 219.425781 C 220.105469 219.515625 220.054688 219.59375 220.003906 219.664062 C 219.992188 219.683594 219.972656 219.703125 219.957031 219.71875 Z M 235.210938 218 C 234.910156 218.457031 234.609375 218.910156 234.296875 219.363281 C 233.96875 219.839844 233.632812 220.308594 233.292969 220.777344 C 233.253906 220.3125 233.199219 219.851562 233.105469 219.398438 C 232.839844 218.101562 232.476562 216.828125 232.128906 215.550781 C 232.066406 215.320312 232.007812 215.09375 231.945312 214.867188 C 231.628906 213.652344 231.363281 212.433594 231.335938 211.164062 C 231.296875 209.585938 231.40625 208.019531 231.644531 206.464844 C 232.054688 203.757812 232.511719 201.054688 232.945312 198.351562 C 233.109375 197.332031 233.175781 196.316406 232.875 195.300781 C 232.808594 195.078125 232.796875 194.828125 232.820312 194.59375 C 232.921875 193.65625 233.074219 192.722656 233.15625 191.785156 C 233.277344 190.472656 233.320312 189.167969 233.277344 187.867188 C 233.207031 185.824219 232.917969 183.800781 232.324219 181.800781 C 232.164062 181.261719 232.09375 180.71875 232.238281 180.160156 C 232.289062 179.972656 232.300781 179.75 232.257812 179.5625 C 232.101562 178.890625 231.964844 178.210938 231.726562 177.570312 C 231.066406 175.78125 230.363281 174.007812 229.664062 172.230469 C 229.105469 170.804688 228.640625 169.363281 228.269531 167.894531 C 227.886719 166.363281 227.605469 164.804688 227.460938 163.21875 C 227.421875 162.769531 227.390625 162.316406 227.371094 161.863281 C 227.332031 161.023438 227.390625 160.210938 227.820312 159.453125 C 228.308594 158.601562 228.398438 157.703125 228.066406 156.769531 C 227.960938 156.46875 227.976562 156.171875 228.105469 155.871094 C 228.28125 155.457031 228.328125 155.019531 228.292969 154.574219 C 228.222656 153.710938 227.886719 153.285156 227.058594 153.035156 C 226.886719 152.980469 226.710938 152.941406 226.535156 152.90625 C 225.382812 152.691406 224.226562 152.597656 223.066406 152.597656 C 222.179688 152.597656 221.296875 152.652344 220.40625 152.753906 C 219.730469 152.828125 219.054688 152.910156 218.417969 153.183594 C 217.917969 153.402344 217.605469 153.777344 217.433594 154.289062 C 217.28125 154.746094 217.316406 155.191406 217.542969 155.613281 C 217.777344 156.050781 217.835938 156.488281 217.644531 156.96875 C 217.257812 157.933594 217.433594 158.835938 218.023438 159.667969 C 218.335938 160.105469 218.503906 160.585938 218.476562 161.117188 C 218.429688 162.007812 218.375 162.898438 218.273438 163.78125 C 218.132812 165.015625 217.957031 166.246094 217.683594 167.457031 C 217.507812 168.238281 217.292969 169.011719 217.023438 169.769531 C 216.804688 170.378906 216.574219 170.988281 216.34375 171.597656 C 215.898438 172.789062 215.441406 173.976562 214.984375 175.164062 C 214.535156 176.316406 214.050781 177.453125 213.597656 178.601562 C 213.394531 179.117188 213.347656 179.65625 213.539062 180.183594 C 213.695312 180.617188 213.6875 181.03125 213.53125 181.457031 C 213.492188 181.566406 213.464844 181.683594 213.4375 181.800781 C 213.074219 183.476562 212.75 185.160156 212.589844 186.871094 C 212.570312 187.082031 212.550781 187.296875 212.535156 187.511719 C 212.425781 189.007812 212.429688 190.507812 212.671875 191.996094 C 212.804688 192.828125 212.765625 193.625 212.550781 194.441406 C 212.4375 194.886719 212.40625 195.386719 212.476562 195.839844 C 212.820312 198.105469 213.214844 200.363281 213.582031 202.621094 C 213.972656 205 214.375 207.375 214.441406 209.796875 C 214.496094 211.722656 214.320312 213.601562 213.714844 215.441406 C 213.425781 216.320312 213.1875 217.222656 212.957031 218.121094 C 212.597656 219.539062 212.371094 220.976562 212.523438 222.453125 C 212.625 223.429688 213.050781 224.199219 213.878906 224.746094 C 214.621094 225.242188 215.429688 225.589844 216.285156 225.828125 C 218.359375 226.402344 220.480469 226.65625 223.160156 226.679688 C 223.3125 226.683594 223.460938 226.683594 223.617188 226.683594 C 223.707031 226.683594 223.796875 226.683594 223.886719 226.683594 C 225.019531 226.683594 227.117188 226.464844 228.628906 226.097656 C 228.789062 226.058594 228.953125 226.015625 229.113281 225.972656 C 228.660156 226.484375 228.199219 226.988281 227.730469 227.484375 C 227.289062 227.953125 226.84375 228.414062 226.386719 228.871094 C 214.035156 241.25 196.957031 248.910156 178.085938 248.910156 C 140.402344 248.910156 109.851562 218.363281 109.851562 180.675781 C 109.851562 163.132812 116.476562 147.136719 127.359375 135.050781 C 128.183594 136.726562 129.5625 139.074219 131.652344 141.292969 C 130.96875 142.160156 130.402344 143.09375 130.007812 144.066406 C 128.511719 147.746094 129.0625 151.894531 132.515625 154.976562 C 134.152344 156.464844 135.457031 157.828125 136.386719 159.132812 C 140.355469 164.535156 136.964844 169.238281 133.066406 170.390625 C 127.085938 172.207031 124.175781 165.933594 129.210938 161.492188 C 123.84375 161.425781 120.304688 166.570312 122.199219 171.617188 C 126.234375 182.511719 145.664062 175.425781 144.613281 164.007812 C 144.292969 160.617188 142.257812 157.289062 138.527344 154.53125 C 135.03125 152.171875 131.605469 148.546875 133.816406 143.308594 C 135.316406 144.519531 137.074219 145.597656 139.125 146.382812 C 139.125 146.382812 139.136719 146.386719 139.15625 146.390625 C 143.128906 148.023438 147.996094 144.449219 146.625 139.777344 C 146.460938 139.210938 146.21875 138.667969 145.898438 138.152344 C 143.511719 134.328125 137.5 135.820312 133.425781 139.425781 C 132.234375 137.28125 132.53125 132.738281 132.949219 129.511719 C 144.976562 118.894531 160.777344 112.445312 178.085938 112.445312 C 210.042969 112.445312 236.867188 134.417969 244.28125 164.078125 C 238.941406 162.265625 234.070312 162.066406 229.792969 162.75 C 229.925781 164.414062 230.214844 166.078125 230.664062 167.765625 C 237.085938 167.652344 242.550781 169.449219 245.59375 170.726562 C 246.070312 173.976562 246.320312 177.296875 246.320312 180.675781 C 246.320312 194.453125 242.234375 207.273438 235.210938 218 Z M 178.085938 107.363281 C 137.597656 107.363281 104.769531 140.1875 104.769531 180.675781 C 104.769531 221.167969 137.597656 253.992188 178.085938 253.992188 C 218.578125 253.992188 251.402344 221.167969 251.402344 180.675781 C 251.402344 140.1875 218.578125 107.363281 178.085938 107.363281 Z M 222.191406 135.347656 C 222.191406 134.976562 222.515625 134.675781 222.914062 134.671875 C 223.296875 134.667969 223.582031 134.941406 223.585938 135.324219 C 223.585938 135.730469 223.273438 136.058594 222.890625 136.054688 C 222.515625 136.050781 222.1875 135.71875 222.191406 135.347656 Z M 225.070312 138.117188 C 225.066406 138.707031 224.601562 139.15625 224 139.15625 C 223.386719 139.15625 222.917969 138.691406 222.929688 138.097656 C 222.941406 137.507812 223.457031 137.003906 224.050781 137.003906 C 224.617188 137 225.074219 137.5 225.070312 138.117188 Z M 224.925781 148.546875 C 224.925781 149.445312 224.191406 150.210938 223.34375 150.207031 C 222.476562 150.203125 221.777344 149.5 221.78125 148.628906 C 221.78125 147.734375 222.457031 147.066406 223.371094 147.066406 C 224.269531 147.066406 224.925781 147.695312 224.925781 148.546875 Z M 220.289062 142.75 C 219.855469 142.753906 219.460938 142.371094 219.460938 141.941406 C 219.457031 141.503906 219.824219 141.117188 220.242188 141.117188 C 220.683594 141.117188 221.070312 141.523438 221.066406 141.980469 C 221.0625 142.398438 220.710938 142.746094 220.289062 142.75 Z M 224.035156 142.992188 C 224.0625 141.277344 222.878906 140.019531 221.203125 139.996094 C 219.632812 139.972656 218.300781 141.242188 218.28125 142.796875 C 218.257812 144.402344 219.550781 145.734375 221.148438 145.753906 C 222.691406 145.769531 224.011719 144.507812 224.035156 142.992188 Z M 201.179688 169.914062 C 199.015625 172.753906 195.675781 175.425781 193.273438 175.074219 C 190.773438 174.714844 192.257812 171.023438 194.957031 167.960938 C 197.125 165.425781 200.136719 162.957031 202.183594 164.355469 C 203.472656 165.492188 203.285156 167.121094 201.179688 169.914062 Z M 168.910156 167.039062 C 165.472656 165.246094 173.128906 156.941406 177.515625 157.675781 C 179.671875 158.085938 178.023438 161.566406 175.996094 162.078125 C 176.871094 162.609375 177.808594 162.589844 178.757812 162.210938 C 176.6875 165.199219 171.511719 168.519531 168.910156 167.039062 Z M 157.964844 163.136719 C 154.730469 161.183594 156.761719 155.8125 159.398438 155.234375 C 160.683594 157.109375 159.636719 160.851562 157.964844 163.136719 Z M 149.402344 163.859375 C 149.464844 161.75 150.457031 159.234375 151.992188 157.332031 C 153.476562 155.425781 155.464844 154.183594 157.648438 154.523438 C 153.550781 156.511719 152.011719 161.855469 156.511719 164.945312 C 155.226562 167.496094 149.164062 168.664062 149.402344 163.859375 Z M 198.492188 147.066406 C 200.851562 148.992188 191.804688 158.425781 186.789062 158.375 C 190.535156 153.832031 197.121094 145.96875 198.492188 147.066406 Z M 210.78125 173.199219 C 210.601562 173.398438 210.421875 173.601562 210.238281 173.792969 C 205.253906 178.964844 200.855469 177.167969 205.316406 170.71875 C 207.71875 167.261719 210.78125 163.402344 211.980469 163.074219 L 206.050781 162.214844 C 206.25 162.894531 205.183594 164.390625 204.488281 165.390625 C 204.722656 163.421875 203.535156 161.949219 201.644531 161.527344 C 197.5 160.773438 192.480469 165 189.679688 168.796875 C 189.671875 168.804688 189.667969 168.8125 189.664062 168.816406 L 189.640625 168.75 C 187.078125 171.167969 184.128906 171.8125 182 171.152344 C 179.300781 170.3125 182.882812 163.957031 184.792969 161.800781 C 192.324219 162.269531 206.207031 149.617188 200.21875 145.011719 C 198.117188 143.425781 194.660156 142.871094 188.148438 150.652344 C 185.304688 153.972656 184.039062 155.550781 181.753906 158.058594 C 181.855469 156.898438 181.019531 155.910156 179.910156 155.308594 C 176.15625 153.367188 170.820312 155.859375 166.867188 159.40625 C 164.652344 161.386719 163.316406 163.445312 162.679688 165.332031 C 162.449219 165.296875 162.257812 165.203125 162.128906 165.035156 C 164.550781 160.5625 163.710938 153.648438 158.710938 152.75 C 151.515625 151.460938 145.496094 158.582031 145.800781 165.871094 C 146.011719 175.417969 156.273438 176.042969 161.210938 166.765625 C 161.550781 166.945312 161.90625 167.0625 162.273438 167.136719 C 161.960938 169.914062 163.246094 172.078125 165.394531 172.691406 C 167.964844 173.433594 172.710938 172.003906 174.832031 169.34375 C 173.609375 172.28125 174.144531 175.402344 176.511719 176.136719 C 179.855469 177.175781 183.808594 175.699219 187.601562 172.742188 C 186.265625 176.867188 187.40625 180.730469 190.339844 181.15625 C 192.886719 181.527344 195.980469 178.824219 198.203125 175.589844 C 196.511719 179.648438 197.046875 181.828125 198.777344 182.332031 C 201.1875 183.09375 205.855469 180.777344 210.308594 176.21875 C 211.144531 175.359375 212.035156 174.546875 212.980469 173.808594 C 213.5 172.464844 214.027344 171.085938 214.527344 169.714844 C 212.539062 171.304688 211.253906 172.671875 210.78125 173.199219 " fill-opacity="1" fill-rule="nonzero"/><g clip-path="url(#e6ba16ff00)"><g clip-path="url(#cd0af04656)"><g clip-path="url(#b1be38abf9)"><path fill="#9f0520" d="M 263.324219 125.523438 C 272.140625 137.183594 272.101562 139.152344 262.820312 150.445312 C 262.847656 150.425781 262.871094 150.40625 262.894531 150.390625 C 274.488281 141.628906 276.472656 141.6875 287.742188 150.949219 C 278.925781 139.289062 278.964844 137.320312 288.246094 126.027344 C 276.585938 134.84375 274.617188 134.800781 263.324219 125.523438 Z M 263.324219 125.523438 " fill-opacity="1" fill-rule="nonzero"/></g></g></g><g fill="#9f0520" fill-opacity="1"><g transform="translate(83.537418, 234.761807)"><g><path d="M -0.125 -0.203125 L 17.84375 -3.25 L 19.25 -1.078125 L 8.875 13.78125 L 7.171875 11.15625 L 9.578125 7.796875 L 5.625 1.65625 L 1.5625 2.421875 Z M 8.34375 1.171875 L 11.203125 5.59375 L 15.34375 -0.15625 Z M 8.34375 1.171875 "/></g></g></g><g fill="#9f0520" fill-opacity="1"><g transform="translate(101.265991, 259.059881)"><g><path d="M 11.390625 12.109375 C 10.535156 12.859375 9.632812 13.195312 8.6875 13.125 C 7.75 13.0625 6.851562 12.65625 6 11.90625 C 4.851562 10.882812 4.238281 9.769531 4.15625 8.5625 C 4.070312 7.351562 4.535156 6.171875 5.546875 5.015625 C 4.234375 3.472656 3.617188 1.796875 3.703125 -0.015625 C 3.796875 -1.835938 4.613281 -3.613281 6.15625 -5.34375 C 7.300781 -6.644531 8.582031 -7.570312 10 -8.125 C 11.414062 -8.675781 12.847656 -8.816406 14.296875 -8.546875 C 15.742188 -8.273438 17.113281 -7.566406 18.40625 -6.421875 C 19.5625 -5.390625 20.34375 -4.226562 20.75 -2.9375 C 21.164062 -1.644531 21.207031 -0.328125 20.875 1.015625 C 20.539062 2.367188 19.820312 3.671875 18.71875 4.921875 C 17.625 6.148438 16.445312 7.039062 15.1875 7.59375 C 13.9375 8.15625 12.671875 8.382812 11.390625 8.28125 C 10.109375 8.175781 8.90625 7.765625 7.78125 7.046875 L 7.75 7.078125 C 7.207031 7.691406 6.925781 8.238281 6.90625 8.71875 C 6.894531 9.195312 7.132812 9.65625 7.625 10.09375 C 7.96875 10.394531 8.328125 10.554688 8.703125 10.578125 C 9.078125 10.609375 9.425781 10.492188 9.75 10.234375 Z M 8.5 4.125 C 9.238281 4.78125 10.050781 5.175781 10.9375 5.3125 C 11.832031 5.445312 12.742188 5.316406 13.671875 4.921875 C 14.609375 4.523438 15.515625 3.835938 16.390625 2.859375 C 17.492188 1.609375 18.0625 0.320312 18.09375 -1 C 18.125 -2.332031 17.609375 -3.46875 16.546875 -4.40625 C 15.773438 -5.082031 14.921875 -5.488281 13.984375 -5.625 C 13.046875 -5.769531 12.101562 -5.648438 11.15625 -5.265625 C 10.207031 -4.890625 9.328125 -4.238281 8.515625 -3.3125 C 7.328125 -1.976562 6.738281 -0.660156 6.75 0.640625 C 6.769531 1.941406 7.351562 3.101562 8.5 4.125 Z M 8.5 4.125 "/></g></g></g><g fill="#9f0520" fill-opacity="1"><g transform="translate(118.62409, 273.494077)"><g><path d="M 5.46875 3.71875 C 4.25 2.945312 3.515625 2.007812 3.265625 0.90625 C 3.015625 -0.1875 3.234375 -1.265625 3.921875 -2.328125 L 6.921875 -6.890625 L 5.21875 -7.96875 L 6.5 -10 L 8.25 -8.890625 L 9.59375 -10.953125 L 12.015625 -9.421875 L 10.671875 -7.359375 L 13.953125 -5.28125 L 12.671875 -3.25 L 9.359375 -5.34375 L 6.5625 -1.03125 C 6.195312 -0.5 6.054688 0.0078125 6.140625 0.5 C 6.234375 1 6.566406 1.429688 7.140625 1.796875 C 7.441406 1.992188 7.75 2.132812 8.0625 2.21875 C 8.375 2.3125 8.75 2.34375 9.1875 2.3125 L 8.703125 4.640625 C 8.234375 4.710938 7.71875 4.664062 7.15625 4.5 C 6.601562 4.332031 6.039062 4.070312 5.46875 3.71875 Z M 5.46875 3.71875 "/></g></g></g><g fill="#9f0520" fill-opacity="1"><g transform="translate(130.013637, 280.36054)"><g/></g></g><g fill="#9f0520" fill-opacity="1"><g transform="translate(138.716984, 284.801189)"><g><path d="M -0.21875 -0.078125 L 12 -13.609375 L 14.453125 -12.765625 L 15.5 5.328125 L 12.546875 4.3125 L 12.359375 0.203125 L 5.453125 -2.1875 L 2.71875 0.9375 Z M 7.28125 -4.265625 L 12.265625 -2.546875 L 11.953125 -9.625 Z M 7.28125 -4.265625 "/></g></g></g><g fill="#9f0520" fill-opacity="1"><g transform="translate(158.339843, 291.057577)"><g><path d="M 0.765625 4.890625 L 3.390625 -11.53125 L 6.25 -11.0625 L 5.84375 -8.984375 C 6.375 -9.648438 7.003906 -10.125 7.734375 -10.40625 C 8.460938 -10.695312 9.269531 -10.773438 10.15625 -10.640625 C 11.195312 -10.472656 12.035156 -10.085938 12.671875 -9.484375 C 13.316406 -8.890625 13.757812 -8.140625 14 -7.234375 C 14.238281 -6.335938 14.269531 -5.359375 14.09375 -4.296875 C 13.882812 -2.984375 13.445312 -1.875 12.78125 -0.96875 C 12.113281 -0.0625 11.285156 0.597656 10.296875 1.015625 C 9.316406 1.429688 8.257812 1.546875 7.125 1.359375 C 6.53125 1.265625 6.007812 1.070312 5.5625 0.78125 C 5.113281 0.5 4.75 0.164062 4.46875 -0.21875 L 4.359375 0.703125 L 3.609375 5.359375 Z M 7.296875 -1.171875 C 8.273438 -1.015625 9.113281 -1.257812 9.8125 -1.90625 C 10.507812 -2.5625 10.953125 -3.484375 11.140625 -4.671875 C 11.304688 -5.671875 11.21875 -6.476562 10.875 -7.09375 C 10.53125 -7.71875 9.976562 -8.085938 9.21875 -8.203125 C 8.582031 -8.304688 7.984375 -8.222656 7.421875 -7.953125 C 6.867188 -7.679688 6.394531 -7.253906 6 -6.671875 C 5.601562 -6.097656 5.335938 -5.394531 5.203125 -4.5625 C 5.054688 -3.644531 5.171875 -2.878906 5.546875 -2.265625 C 5.921875 -1.660156 6.503906 -1.296875 7.296875 -1.171875 Z M 7.296875 -1.171875 "/></g></g></g><g fill="#9f0520" fill-opacity="1"><g transform="translate(176.647465, 293.632184)"><g><path d="M 1.546875 4.71875 L 1.484375 -11.921875 L 4.390625 -11.9375 L 4.296875 -9.8125 C 4.722656 -10.550781 5.273438 -11.125 5.953125 -11.53125 C 6.628906 -11.9375 7.414062 -12.140625 8.3125 -12.140625 C 9.363281 -12.148438 10.25 -11.910156 10.96875 -11.421875 C 11.695312 -10.929688 12.253906 -10.265625 12.640625 -9.421875 C 13.023438 -8.578125 13.21875 -7.613281 13.21875 -6.53125 C 13.226562 -5.207031 12.972656 -4.039062 12.453125 -3.03125 C 11.941406 -2.019531 11.234375 -1.234375 10.328125 -0.671875 C 9.421875 -0.109375 8.394531 0.175781 7.25 0.1875 C 6.644531 0.1875 6.097656 0.0859375 5.609375 -0.109375 C 5.128906 -0.316406 4.722656 -0.59375 4.390625 -0.9375 L 4.421875 -0.015625 L 4.4375 4.703125 Z M 7.015625 -2.34375 C 8.003906 -2.34375 8.789062 -2.722656 9.375 -3.484375 C 9.957031 -4.242188 10.242188 -5.222656 10.234375 -6.421875 C 10.234375 -7.429688 10.007812 -8.210938 9.5625 -8.765625 C 9.125 -9.328125 8.519531 -9.601562 7.75 -9.59375 C 7.101562 -9.59375 6.53125 -9.410156 6.03125 -9.046875 C 5.53125 -8.691406 5.128906 -8.195312 4.828125 -7.5625 C 4.535156 -6.925781 4.394531 -6.1875 4.40625 -5.34375 C 4.40625 -4.414062 4.640625 -3.679688 5.109375 -3.140625 C 5.578125 -2.609375 6.210938 -2.34375 7.015625 -2.34375 Z M 7.015625 -2.34375 "/></g></g></g><g fill="#9f0520" fill-opacity="1"><g transform="translate(194.815049, 293.06456)"><g><path d="M 4.96875 -0.4375 C 3.84375 -0.289062 2.945312 -0.484375 2.28125 -1.015625 C 1.625 -1.546875 1.222656 -2.375 1.078125 -3.5 L -0.796875 -17.515625 L 2.078125 -17.890625 L 3.921875 -4.109375 C 4.035156 -3.273438 4.476562 -2.910156 5.25 -3.015625 C 5.644531 -3.066406 5.972656 -3.207031 6.234375 -3.4375 L 7.21875 -1.4375 C 6.988281 -1.21875 6.671875 -1.007812 6.265625 -0.8125 C 5.867188 -0.625 5.4375 -0.5 4.96875 -0.4375 Z M 4.96875 -0.4375 "/></g></g></g><g fill="#9f0520" fill-opacity="1"><g transform="translate(205.233713, 291.491504)"><g><path d="M 1.703125 -12.59375 L 4.3125 -0.96875 L 1.5 -0.34375 L -1.109375 -11.96875 Z M -0.140625 -14.125 C -0.679688 -14 -1.148438 -14.066406 -1.546875 -14.328125 C -1.953125 -14.597656 -2.210938 -14.972656 -2.328125 -15.453125 C -2.429688 -15.929688 -2.359375 -16.375 -2.109375 -16.78125 C -1.859375 -17.195312 -1.460938 -17.46875 -0.921875 -17.59375 C -0.367188 -17.71875 0.101562 -17.644531 0.5 -17.375 C 0.90625 -17.113281 1.160156 -16.742188 1.265625 -16.265625 C 1.378906 -15.785156 1.3125 -15.335938 1.0625 -14.921875 C 0.8125 -14.515625 0.410156 -14.25 -0.140625 -14.125 Z M -0.140625 -14.125 "/></g></g></g><g fill="#9f0520" fill-opacity="1"><g transform="translate(214.773711, 289.287889)"><g><path d="M 6.546875 -2.03125 C 4.835938 -1.4375 3.3125 -1.460938 1.96875 -2.109375 C 0.632812 -2.753906 -0.335938 -3.960938 -0.953125 -5.734375 C -1.359375 -6.921875 -1.472656 -8.050781 -1.296875 -9.125 C -1.117188 -10.207031 -0.679688 -11.15625 0.015625 -11.96875 C 0.710938 -12.78125 1.632812 -13.382812 2.78125 -13.78125 C 3.738281 -14.113281 4.632812 -14.21875 5.46875 -14.09375 C 6.3125 -13.96875 7.09375 -13.585938 7.8125 -12.953125 L 6.375 -10.796875 C 5.9375 -11.171875 5.5 -11.398438 5.0625 -11.484375 C 4.625 -11.566406 4.144531 -11.519531 3.625 -11.34375 C 2.75 -11.039062 2.144531 -10.460938 1.8125 -9.609375 C 1.476562 -8.765625 1.5 -7.8125 1.875 -6.75 C 2.226562 -5.707031 2.75 -4.992188 3.4375 -4.609375 C 4.132812 -4.222656 4.945312 -4.191406 5.875 -4.515625 C 6.375 -4.679688 6.796875 -4.945312 7.140625 -5.3125 C 7.484375 -5.675781 7.71875 -6.148438 7.84375 -6.734375 L 10.25 -5.875 C 10.03125 -4.875 9.597656 -4.066406 8.953125 -3.453125 C 8.304688 -2.835938 7.503906 -2.363281 6.546875 -2.03125 Z M 6.546875 -2.03125 "/></g></g></g><g fill="#9f0520" fill-opacity="1"><g transform="translate(229.649039, 283.919234)"><g><path d="M 5.703125 -16.40625 L 11.21875 -5.890625 L 8.640625 -4.53125 L 7.75 -6.421875 C 7.71875 -5.578125 7.492188 -4.816406 7.078125 -4.140625 C 6.660156 -3.472656 6.054688 -2.929688 5.265625 -2.515625 C 4.347656 -2.035156 3.453125 -1.835938 2.578125 -1.921875 C 1.710938 -2.015625 0.914062 -2.347656 0.1875 -2.921875 C -0.53125 -3.503906 -1.148438 -4.285156 -1.671875 -5.265625 C -2.273438 -6.429688 -2.582031 -7.578125 -2.59375 -8.703125 C -2.601562 -9.828125 -2.335938 -10.847656 -1.796875 -11.765625 C -1.253906 -12.691406 -0.484375 -13.414062 0.515625 -13.9375 C 1.191406 -14.289062 1.863281 -14.457031 2.53125 -14.4375 C 3.195312 -14.425781 3.789062 -14.257812 4.3125 -13.9375 L 3.84375 -15.4375 Z M 1.90625 -11.796875 C 1.03125 -11.335938 0.503906 -10.644531 0.328125 -9.71875 C 0.160156 -8.789062 0.351562 -7.796875 0.90625 -6.734375 C 1.382812 -5.835938 1.945312 -5.238281 2.59375 -4.9375 C 3.25 -4.644531 3.921875 -4.675781 4.609375 -5.03125 C 5.160156 -5.320312 5.582031 -5.75 5.875 -6.3125 C 6.164062 -6.875 6.289062 -7.503906 6.25 -8.203125 C 6.21875 -8.910156 6.003906 -9.640625 5.609375 -10.390625 C 5.179688 -11.203125 4.632812 -11.734375 3.96875 -11.984375 C 3.3125 -12.234375 2.625 -12.171875 1.90625 -11.796875 Z M 1.90625 -11.796875 "/></g></g></g><g fill="#9f0520" fill-opacity="1"><g transform="translate(245.626901, 275.022844)"><g><path d="M 5.46875 -3.6875 C 4.300781 -2.84375 3.160156 -2.507812 2.046875 -2.6875 C 0.941406 -2.863281 0.03125 -3.472656 -0.6875 -4.515625 L -3.796875 -8.984375 L -5.453125 -7.796875 L -6.859375 -9.75 L -5.171875 -10.96875 L -6.578125 -12.984375 L -4.25 -14.671875 L -2.84375 -12.640625 L 0.3125 -14.90625 L 1.71875 -12.953125 L -1.46875 -10.671875 L 1.484375 -6.453125 C 1.847656 -5.921875 2.273438 -5.601562 2.765625 -5.5 C 3.253906 -5.394531 3.773438 -5.539062 4.328125 -5.9375 C 4.617188 -6.15625 4.863281 -6.394531 5.0625 -6.65625 C 5.269531 -6.914062 5.441406 -7.25 5.578125 -7.65625 L 7.5625 -6.34375 C 7.445312 -5.882812 7.207031 -5.425781 6.84375 -4.96875 C 6.476562 -4.507812 6.019531 -4.082031 5.46875 -3.6875 Z M 5.46875 -3.6875 "/></g></g></g><g fill="#9f0520" fill-opacity="1"><g transform="translate(256.258954, 267.019057)"><g><path d="M -4.59375 -11.859375 L 3.3125 -2.9375 L 1.140625 -1.015625 L -6.765625 -9.9375 Z M -6.953125 -12.296875 C -7.367188 -11.921875 -7.8125 -11.753906 -8.28125 -11.796875 C -8.757812 -11.835938 -9.164062 -12.039062 -9.5 -12.40625 C -9.820312 -12.769531 -9.972656 -13.191406 -9.953125 -13.671875 C -9.929688 -14.148438 -9.710938 -14.578125 -9.296875 -14.953125 C -8.867188 -15.328125 -8.414062 -15.492188 -7.9375 -15.453125 C -7.46875 -15.410156 -7.070312 -15.207031 -6.75 -14.84375 C -6.414062 -14.476562 -6.257812 -14.054688 -6.28125 -13.578125 C -6.300781 -13.097656 -6.523438 -12.671875 -6.953125 -12.296875 Z M -6.953125 -12.296875 "/></g></g></g><g fill="#9f0520" fill-opacity="1"><g transform="translate(263.653788, 260.461084)"><g><path d="M -4.359375 -13.359375 C -3.179688 -14.691406 -1.859375 -15.382812 -0.390625 -15.4375 C 1.078125 -15.5 2.488281 -14.929688 3.84375 -13.734375 C 4.757812 -12.921875 5.410156 -12.003906 5.796875 -10.984375 C 6.191406 -9.960938 6.289062 -8.914062 6.09375 -7.84375 C 5.894531 -6.769531 5.390625 -5.78125 4.578125 -4.875 C 3.398438 -3.539062 2.078125 -2.835938 0.609375 -2.765625 C -0.847656 -2.703125 -2.257812 -3.273438 -3.625 -4.484375 C -4.539062 -5.296875 -5.191406 -6.210938 -5.578125 -7.234375 C -5.972656 -8.265625 -6.070312 -9.3125 -5.875 -10.375 C -5.6875 -11.4375 -5.179688 -12.429688 -4.359375 -13.359375 Z M 2.75 -6.609375 C 3.363281 -7.304688 3.59375 -8.101562 3.4375 -9 C 3.28125 -9.894531 2.757812 -10.734375 1.875 -11.515625 C 1.070312 -12.222656 0.289062 -12.582031 -0.46875 -12.59375 C -1.238281 -12.601562 -1.910156 -12.285156 -2.484375 -11.640625 C -3.117188 -10.921875 -3.359375 -10.113281 -3.203125 -9.21875 C -3.046875 -8.320312 -2.53125 -7.488281 -1.65625 -6.71875 C -0.851562 -6.007812 -0.0664062 -5.644531 0.703125 -5.625 C 1.472656 -5.613281 2.15625 -5.941406 2.75 -6.609375 Z M 2.75 -6.609375 "/></g></g></g><g fill="#9f0520" fill-opacity="1"><g transform="translate(275.369729, 246.700603)"><g><path d="M 0.8125 -1.296875 L -9.28125 -7.65625 L -7.734375 -10.09375 L -5.265625 -8.359375 C -5.890625 -9.296875 -6.222656 -10.242188 -6.265625 -11.203125 C -6.316406 -12.160156 -6.078125 -13.066406 -5.546875 -13.921875 C -4.828125 -15.054688 -3.894531 -15.664062 -2.75 -15.75 C -1.601562 -15.84375 -0.3125 -15.421875 1.125 -14.484375 L 6.828125 -10.84375 L 5.296875 -8.40625 L -0.203125 -11.9375 C -0.984375 -12.445312 -1.664062 -12.703125 -2.25 -12.703125 C -2.832031 -12.703125 -3.300781 -12.414062 -3.65625 -11.84375 C -3.9375 -11.40625 -4.066406 -10.921875 -4.046875 -10.390625 C -4.023438 -9.859375 -3.800781 -9.265625 -3.375 -8.609375 C -2.945312 -7.953125 -2.265625 -7.21875 -1.328125 -6.40625 C -0.398438 -5.59375 0.820312 -4.695312 2.34375 -3.71875 Z M 0.8125 -1.296875 "/></g></g></g><g clip-path="url(#7cf8c347bb)"><g clip-path="url(#d13b7be617)"><g clip-path="url(#4c89a2476c)"><path fill="#9f0520" d="M 74.15625 125.523438 C 82.96875 137.183594 82.929688 139.152344 73.652344 150.445312 C 73.675781 150.425781 73.699219 150.40625 73.722656 150.390625 C 85.316406 141.628906 87.300781 141.6875 98.570312 150.949219 C 89.757812 139.289062 89.796875 137.320312 99.074219 126.027344 C 87.417969 134.84375 85.449219 134.800781 74.15625 125.523438 Z M 74.15625 125.523438 " fill-opacity="1" fill-rule="nonzero"/></g></g></g><g clip-path="url(#197e806fd7)"><g clip-path="url(#c1647bbec6)"><g clip-path="url(#8c79079a52)"><path fill="#9f0520" d="M 75.632812 157.433594 C 81.070312 164.628906 81.046875 165.84375 75.324219 172.808594 C 75.335938 172.800781 75.351562 172.789062 75.367188 172.777344 C 82.519531 167.371094 83.746094 167.40625 90.699219 173.121094 C 85.257812 165.925781 85.285156 164.710938 91.007812 157.746094 C 83.816406 163.183594 82.601562 163.160156 75.632812 157.433594 Z M 75.632812 157.433594 " fill-opacity="1" fill-rule="nonzero"/></g></g></g><g clip-path="url(#ccbe636b77)"><g clip-path="url(#6b99641eed)"><g clip-path="url(#6e383641f2)"><path fill="#9f0520" d="M 267.714844 155.105469 C 273.152344 162.296875 273.128906 163.511719 267.402344 170.480469 C 267.417969 170.46875 267.433594 170.457031 267.449219 170.445312 C 274.601562 165.042969 275.828125 165.078125 282.78125 170.792969 C 277.339844 163.597656 277.367188 162.382812 283.089844 155.414062 C 275.898438 160.855469 274.683594 160.828125 267.714844 155.105469 Z M 267.714844 155.105469 " fill-opacity="1" fill-rule="nonzero"/></g></g></g></svg>